<svg height='300px' width='300px'  fill="#CAE4CB" xmlns="http://www.w3.org/2000/svg" xmlns:xlink="http://www.w3.org/1999/xlink" xmlns:serif="http://www.serif.com/" viewBox="0 0 100 100" version="1.1" xml:space="preserve" style="" x="0px" y="0px" fill-rule="evenodd" clip-rule="evenodd"><g><circle cx="35.817" cy="5.875" r="0.875"></circle><circle cx="29.514" cy="9.028" r="0.875"></circle><circle cx="32.666" cy="9.028" r="0.875"></circle><circle cx="35.817" cy="9.028" r="0.875"></circle><circle cx="54.728" cy="9.028" r="0.875"></circle><circle cx="20.058" cy="12.18" r="0.875"></circle><circle cx="29.514" cy="12.18" r="0.875"></circle><circle cx="32.666" cy="12.18" r="0.875"></circle><circle cx="35.817" cy="12.18" r="0.875"></circle><circle cx="45.272" cy="12.18" r="0.875"></circle><circle cx="48.424" cy="12.18" r="0.875"></circle><circle cx="51.575" cy="12.18" r="0.875"></circle><circle cx="54.728" cy="12.18" r="0.875"></circle><circle cx="57.88" cy="12.18" r="0.875"></circle><circle cx="16.907" cy="15.332" r="0.875"></circle><circle cx="20.058" cy="15.332" r="0.875"></circle><circle cx="23.21" cy="15.332" r="0.875"></circle><circle cx="26.361" cy="15.332" r="0.875"></circle><circle cx="29.514" cy="15.332" r="0.875"></circle><circle cx="32.666" cy="15.332" r="0.875"></circle><circle cx="35.817" cy="15.332" r="0.875"></circle><circle cx="38.969" cy="15.332" r="0.875"></circle><circle cx="42.12" cy="15.332" r="0.875"></circle><circle cx="45.272" cy="15.332" r="0.875"></circle><circle cx="48.424" cy="15.332" r="0.875"></circle><circle cx="51.575" cy="15.332" r="0.875"></circle><circle cx="54.728" cy="15.332" r="0.875"></circle><circle cx="57.88" cy="15.332" r="0.875"></circle><circle cx="16.907" cy="18.483" r="0.875"></circle><circle cx="20.058" cy="18.483" r="0.875"></circle><circle cx="23.21" cy="18.483" r="0.875"></circle><circle cx="26.361" cy="18.483" r="0.875"></circle><circle cx="29.514" cy="18.483" r="0.875"></circle><circle cx="32.666" cy="18.483" r="0.875"></circle><circle cx="35.817" cy="18.483" r="0.875"></circle><circle cx="38.969" cy="18.483" r="0.875"></circle><circle cx="42.12" cy="18.483" r="0.875"></circle><circle cx="45.272" cy="18.483" r="0.875"></circle><circle cx="48.424" cy="18.483" r="0.875"></circle><circle cx="51.575" cy="18.483" r="0.875"></circle><circle cx="54.728" cy="18.483" r="0.875"></circle><circle cx="57.88" cy="18.483" r="0.875"></circle><circle cx="61.031" cy="18.483" r="0.875"></circle><circle cx="64.183" cy="18.483" r="0.875"></circle><circle cx="67.334" cy="18.483" r="0.875"></circle><circle cx="16.907" cy="21.635" r="0.875"></circle><circle cx="20.058" cy="21.635" r="0.875"></circle><circle cx="23.21" cy="21.635" r="0.875"></circle><circle cx="26.361" cy="21.635" r="0.875"></circle><circle cx="29.514" cy="21.635" r="0.875"></circle><circle cx="32.666" cy="21.635" r="0.875"></circle><circle cx="35.817" cy="21.635" r="0.875"></circle><circle cx="38.969" cy="21.635" r="0.875"></circle><circle cx="42.12" cy="21.635" r="0.875"></circle><circle cx="45.272" cy="21.635" r="0.875"></circle><circle cx="48.424" cy="21.635" r="0.875"></circle><circle cx="51.575" cy="21.635" r="0.875"></circle><circle cx="54.728" cy="21.635" r="0.875"></circle><circle cx="57.88" cy="21.635" r="0.875"></circle><circle cx="61.031" cy="21.635" r="0.875"></circle><circle cx="64.183" cy="21.635" r="0.875"></circle><circle cx="67.334" cy="21.635" r="0.875"></circle><circle cx="70.486" cy="21.635" r="0.875"></circle><circle cx="73.637" cy="21.635" r="0.875"></circle><circle cx="16.907" cy="24.786" r="0.875"></circle><circle cx="20.058" cy="24.786" r="0.875"></circle><circle cx="23.21" cy="24.786" r="0.875"></circle><circle cx="26.361" cy="24.786" r="0.875"></circle><circle cx="29.514" cy="24.786" r="0.875"></circle><circle cx="32.666" cy="24.786" r="0.875"></circle><circle cx="35.817" cy="24.786" r="0.875"></circle><circle cx="38.969" cy="24.786" r="0.875"></circle><circle cx="42.12" cy="24.786" r="0.875"></circle><circle cx="45.272" cy="24.786" r="0.875"></circle><circle cx="48.424" cy="24.786" r="0.875"></circle><circle cx="51.575" cy="24.786" r="0.875"></circle><circle cx="54.728" cy="24.786" r="0.875"></circle><circle cx="57.88" cy="24.786" r="0.875"></circle><circle cx="61.031" cy="24.786" r="0.875"></circle><circle cx="64.183" cy="24.786" r="0.875"></circle><circle cx="67.334" cy="24.786" r="0.875"></circle><circle cx="70.486" cy="24.786" r="0.875"></circle><circle cx="73.637" cy="24.786" r="0.875"></circle><circle cx="76.789" cy="24.786" r="0.875"></circle><circle cx="79.942" cy="24.786" r="0.875"></circle><circle cx="83.093" cy="24.786" r="0.875"></circle><circle cx="10.604" cy="27.938" r="0.875"></circle><circle cx="13.755" cy="27.938" r="0.875"></circle><circle cx="16.907" cy="27.938" r="0.875"></circle><circle cx="20.058" cy="27.938" r="0.875"></circle><circle cx="23.21" cy="27.938" r="0.875"></circle><circle cx="26.361" cy="27.938" r="0.875"></circle><circle cx="29.514" cy="27.938" r="0.875"></circle><circle cx="32.666" cy="27.938" r="0.875"></circle><circle cx="35.817" cy="27.938" r="0.875"></circle><circle cx="38.969" cy="27.938" r="0.875"></circle><circle cx="42.12" cy="27.938" r="0.875"></circle><circle cx="45.272" cy="27.938" r="0.875"></circle><circle cx="48.424" cy="27.938" r="0.875"></circle><circle cx="51.575" cy="27.938" r="0.875"></circle><circle cx="54.728" cy="27.938" r="0.875"></circle><circle cx="57.88" cy="27.938" r="0.875"></circle><circle cx="61.031" cy="27.938" r="0.875"></circle><circle cx="64.183" cy="27.938" r="0.875"></circle><circle cx="67.334" cy="27.938" r="0.875"></circle><circle cx="70.486" cy="27.938" r="0.875"></circle><circle cx="73.637" cy="27.938" r="0.875"></circle><circle cx="76.789" cy="27.938" r="0.875"></circle><circle cx="79.942" cy="27.938" r="0.875"></circle><circle cx="83.093" cy="27.938" r="0.875"></circle><circle cx="86.245" cy="27.938" r="0.875"></circle><circle cx="89.396" cy="27.938" r="0.875"></circle><circle cx="7.452" cy="31.091" r="0.875"></circle><circle cx="10.604" cy="31.091" r="0.875"></circle><circle cx="13.755" cy="31.091" r="0.875"></circle><circle cx="16.907" cy="31.091" r="0.875"></circle><circle cx="20.058" cy="31.091" r="0.875"></circle><circle cx="23.21" cy="31.091" r="0.875"></circle><circle cx="26.361" cy="31.091" r="0.875"></circle><circle cx="29.514" cy="31.091" r="0.875"></circle><circle cx="32.666" cy="31.091" r="0.875"></circle><circle cx="35.817" cy="31.091" r="0.875"></circle><circle cx="38.969" cy="31.091" r="0.875"></circle><circle cx="42.12" cy="31.091" r="0.875"></circle><circle cx="45.272" cy="31.091" r="0.875"></circle><circle cx="48.424" cy="31.091" r="0.875"></circle><circle cx="51.575" cy="31.091" r="0.875"></circle><circle cx="54.728" cy="31.091" r="0.875"></circle><circle cx="57.88" cy="31.091" r="0.875"></circle><circle cx="61.031" cy="31.091" r="0.875"></circle><circle cx="64.183" cy="31.091" r="0.875"></circle><circle cx="67.334" cy="31.091" r="0.875"></circle><circle cx="70.486" cy="31.091" r="0.875"></circle><circle cx="73.637" cy="31.091" r="0.875"></circle><circle cx="76.789" cy="31.091" r="0.875"></circle><circle cx="79.942" cy="31.091" r="0.875"></circle><circle cx="83.093" cy="31.091" r="0.875"></circle><circle cx="86.245" cy="31.091" r="0.875"></circle><circle cx="89.396" cy="31.091" r="0.875"></circle><circle cx="92.548" cy="31.091" r="0.875"></circle><circle cx="7.452" cy="34.242" r="0.875"></circle><circle cx="10.604" cy="34.242" r="0.875"></circle><circle cx="13.755" cy="34.242" r="0.875"></circle><circle cx="16.907" cy="34.242" r="0.875"></circle><circle cx="20.058" cy="34.242" r="0.875"></circle><circle cx="23.21" cy="34.242" r="0.875"></circle><circle cx="26.361" cy="34.242" r="0.875"></circle><circle cx="29.514" cy="34.242" r="0.875"></circle><circle cx="32.666" cy="34.242" r="0.875"></circle><circle cx="35.817" cy="34.242" r="0.875"></circle><circle cx="38.969" cy="34.242" r="0.875"></circle><circle cx="42.12" cy="34.242" r="0.875"></circle><circle cx="45.272" cy="34.242" r="0.875"></circle><circle cx="48.424" cy="34.242" r="0.875"></circle><circle cx="51.575" cy="34.242" r="0.875"></circle><circle cx="54.728" cy="34.242" r="0.875"></circle><circle cx="57.88" cy="34.242" r="0.875"></circle><circle cx="61.031" cy="34.242" r="0.875"></circle><circle cx="64.183" cy="34.242" r="0.875"></circle><circle cx="67.334" cy="34.242" r="0.875"></circle><circle cx="70.486" cy="34.242" r="0.875"></circle><circle cx="73.637" cy="34.242" r="0.875"></circle><circle cx="76.789" cy="34.242" r="0.875"></circle><circle cx="79.942" cy="34.242" r="0.875"></circle><circle cx="83.093" cy="34.242" r="0.875"></circle><circle cx="86.245" cy="34.242" r="0.875"></circle><circle cx="89.396" cy="34.242" r="0.875"></circle><circle cx="92.548" cy="34.242" r="0.875"></circle><circle cx="10.604" cy="37.394" r="0.875"></circle><circle cx="13.755" cy="37.394" r="0.875"></circle><circle cx="16.907" cy="37.394" r="0.875"></circle><circle cx="20.058" cy="37.394" r="0.875"></circle><circle cx="23.21" cy="37.394" r="0.875"></circle><circle cx="26.361" cy="37.394" r="0.875"></circle><circle cx="29.514" cy="37.394" r="0.875"></circle><circle cx="32.666" cy="37.394" r="0.875"></circle><circle cx="35.817" cy="37.394" r="0.875"></circle><circle cx="38.969" cy="37.394" r="0.875"></circle><circle cx="42.12" cy="37.394" r="0.875"></circle><circle cx="45.272" cy="37.394" r="0.875"></circle><circle cx="48.424" cy="37.394" r="0.875"></circle><circle cx="51.575" cy="37.394" r="0.875"></circle><circle cx="54.728" cy="37.394" r="0.875"></circle><circle cx="57.88" cy="37.394" r="0.875"></circle><circle cx="61.031" cy="37.394" r="0.875"></circle><circle cx="64.183" cy="37.394" r="0.875"></circle><circle cx="67.334" cy="37.394" r="0.875"></circle><circle cx="70.486" cy="37.394" r="0.875"></circle><circle cx="73.637" cy="37.394" r="0.875"></circle><circle cx="76.789" cy="37.394" r="0.875"></circle><circle cx="79.942" cy="37.394" r="0.875"></circle><circle cx="83.093" cy="37.394" r="0.875"></circle><circle cx="86.245" cy="37.394" r="0.875"></circle><circle cx="89.396" cy="37.394" r="0.875"></circle><circle cx="13.755" cy="40.545" r="0.875"></circle><circle cx="16.907" cy="40.545" r="0.875"></circle><circle cx="26.361" cy="40.545" r="0.875"></circle><circle cx="29.514" cy="40.545" r="0.875"></circle><circle cx="32.666" cy="40.545" r="0.875"></circle><circle cx="35.817" cy="40.545" r="0.875"></circle><circle cx="38.969" cy="40.545" r="0.875"></circle><circle cx="42.12" cy="40.545" r="0.875"></circle><circle cx="45.272" cy="40.545" r="0.875"></circle><circle cx="48.424" cy="40.545" r="0.875"></circle><circle cx="51.575" cy="40.545" r="0.875"></circle><circle cx="54.728" cy="40.545" r="0.875"></circle><circle cx="57.88" cy="40.545" r="0.875"></circle><circle cx="61.031" cy="40.545" r="0.875"></circle><circle cx="64.183" cy="40.545" r="0.875"></circle><circle cx="67.334" cy="40.545" r="0.875"></circle><circle cx="70.486" cy="40.545" r="0.875"></circle><circle cx="73.637" cy="40.545" r="0.875"></circle><circle cx="76.789" cy="40.545" r="0.875"></circle><circle cx="79.942" cy="40.545" r="0.875"></circle><circle cx="83.093" cy="40.545" r="0.875"></circle><circle cx="86.245" cy="40.545" r="0.875"></circle><circle cx="29.514" cy="43.697" r="0.875"></circle><circle cx="32.666" cy="43.697" r="0.875"></circle><circle cx="35.817" cy="43.697" r="0.875"></circle><circle cx="38.969" cy="43.697" r="0.875"></circle><circle cx="42.12" cy="43.697" r="0.875"></circle><circle cx="45.272" cy="43.697" r="0.875"></circle><circle cx="48.424" cy="43.697" r="0.875"></circle><circle cx="51.575" cy="43.697" r="0.875"></circle><circle cx="54.728" cy="43.697" r="0.875"></circle><circle cx="57.88" cy="43.697" r="0.875"></circle><circle cx="61.031" cy="43.697" r="0.875"></circle><circle cx="64.183" cy="43.697" r="0.875"></circle><circle cx="67.334" cy="43.697" r="0.875"></circle><circle cx="70.486" cy="43.697" r="0.875"></circle><circle cx="73.637" cy="43.697" r="0.875"></circle><circle cx="76.789" cy="43.697" r="0.875"></circle><circle cx="79.942" cy="43.697" r="0.875"></circle><circle cx="83.093" cy="43.697" r="0.875"></circle><circle cx="35.817" cy="46.848" r="0.875"></circle><circle cx="38.969" cy="46.848" r="0.875"></circle><circle cx="42.12" cy="46.848" r="0.875"></circle><circle cx="45.272" cy="46.848" r="0.875"></circle><circle cx="48.424" cy="46.848" r="0.875"></circle><circle cx="51.575" cy="46.848" r="0.875"></circle><circle cx="54.728" cy="46.848" r="0.875"></circle><circle cx="57.88" cy="46.848" r="0.875"></circle><circle cx="61.031" cy="46.848" r="0.875"></circle><circle cx="64.183" cy="46.848" r="0.875"></circle><circle cx="67.334" cy="46.848" r="0.875"></circle><circle cx="70.486" cy="46.848" r="0.875"></circle><circle cx="73.637" cy="46.848" r="0.875"></circle><circle cx="76.789" cy="46.848" r="0.875"></circle><circle cx="79.942" cy="46.848" r="0.875"></circle><circle cx="83.093" cy="46.848" r="0.875"></circle><circle cx="38.969" cy="50" r="0.875"></circle><circle cx="42.12" cy="50" r="0.875"></circle><circle cx="45.272" cy="50" r="0.875"></circle><circle cx="48.424" cy="50" r="0.875"></circle><circle cx="51.575" cy="50" r="0.875"></circle><circle cx="54.728" cy="50" r="0.875"></circle><circle cx="57.88" cy="50" r="0.875"></circle><circle cx="61.031" cy="50" r="0.875"></circle><circle cx="64.183" cy="50" r="0.875"></circle><circle cx="67.334" cy="50" r="0.875"></circle><circle cx="70.486" cy="50" r="0.875"></circle><circle cx="73.637" cy="50" r="0.875"></circle><circle cx="76.789" cy="50" r="0.875"></circle><circle cx="79.942" cy="50" r="0.875"></circle><circle cx="83.093" cy="50" r="0.875"></circle><circle cx="42.12" cy="53.152" r="0.875"></circle><circle cx="45.272" cy="53.152" r="0.875"></circle><circle cx="48.424" cy="53.152" r="0.875"></circle><circle cx="51.575" cy="53.152" r="0.875"></circle><circle cx="54.728" cy="53.152" r="0.875"></circle><circle cx="57.88" cy="53.152" r="0.875"></circle><circle cx="61.031" cy="53.152" r="0.875"></circle><circle cx="64.183" cy="53.152" r="0.875"></circle><circle cx="67.334" cy="53.152" r="0.875"></circle><circle cx="70.486" cy="53.152" r="0.875"></circle><circle cx="73.637" cy="53.152" r="0.875"></circle><circle cx="76.789" cy="53.152" r="0.875"></circle><circle cx="79.942" cy="53.152" r="0.875"></circle><circle cx="83.093" cy="53.152" r="0.875"></circle><circle cx="42.12" cy="56.303" r="0.875"></circle><circle cx="45.272" cy="56.303" r="0.875"></circle><circle cx="48.424" cy="56.303" r="0.875"></circle><circle cx="51.575" cy="56.303" r="0.875"></circle><circle cx="54.728" cy="56.303" r="0.875"></circle><circle cx="57.88" cy="56.303" r="0.875"></circle><circle cx="61.031" cy="56.303" r="0.875"></circle><circle cx="64.183" cy="56.303" r="0.875"></circle><circle cx="67.334" cy="56.303" r="0.875"></circle><circle cx="70.486" cy="56.303" r="0.875"></circle><circle cx="73.637" cy="56.303" r="0.875"></circle><circle cx="76.789" cy="56.303" r="0.875"></circle><circle cx="79.942" cy="56.303" r="0.875"></circle><circle cx="42.12" cy="59.456" r="0.875"></circle><circle cx="45.272" cy="59.456" r="0.875"></circle><circle cx="48.424" cy="59.456" r="0.875"></circle><circle cx="51.575" cy="59.456" r="0.875"></circle><circle cx="54.728" cy="59.456" r="0.875"></circle><circle cx="57.88" cy="59.456" r="0.875"></circle><circle cx="61.031" cy="59.456" r="0.875"></circle><circle cx="64.183" cy="59.456" r="0.875"></circle><circle cx="67.334" cy="59.456" r="0.875"></circle><circle cx="70.486" cy="59.456" r="0.875"></circle><circle cx="73.637" cy="59.456" r="0.875"></circle><circle cx="76.789" cy="59.456" r="0.875"></circle><circle cx="79.942" cy="59.456" r="0.875"></circle><circle cx="42.12" cy="62.608" r="0.875"></circle><circle cx="45.272" cy="62.608" r="0.875"></circle><circle cx="48.424" cy="62.608" r="0.875"></circle><circle cx="51.575" cy="62.608" r="0.875"></circle><circle cx="54.728" cy="62.608" r="0.875"></circle><circle cx="57.88" cy="62.608" r="0.875"></circle><circle cx="61.031" cy="62.608" r="0.875"></circle><circle cx="64.183" cy="62.608" r="0.875"></circle><circle cx="67.334" cy="62.608" r="0.875"></circle><circle cx="70.486" cy="62.608" r="0.875"></circle><circle cx="73.637" cy="62.608" r="0.875"></circle><circle cx="76.789" cy="62.608" r="0.875"></circle><circle cx="79.942" cy="62.608" r="0.875"></circle><circle cx="42.12" cy="65.759" r="0.875"></circle><circle cx="45.272" cy="65.759" r="0.875"></circle><circle cx="48.424" cy="65.759" r="0.875"></circle><circle cx="51.575" cy="65.759" r="0.875"></circle><circle cx="54.728" cy="65.759" r="0.875"></circle><circle cx="57.88" cy="65.759" r="0.875"></circle><circle cx="61.031" cy="65.759" r="0.875"></circle><circle cx="64.183" cy="65.759" r="0.875"></circle><circle cx="67.334" cy="65.759" r="0.875"></circle><circle cx="70.486" cy="65.759" r="0.875"></circle><circle cx="73.637" cy="65.759" r="0.875"></circle><circle cx="76.789" cy="65.759" r="0.875"></circle><circle cx="48.424" cy="68.911" r="0.875"></circle><circle cx="51.575" cy="68.911" r="0.875"></circle><circle cx="54.728" cy="68.911" r="0.875"></circle><circle cx="57.88" cy="68.911" r="0.875"></circle><circle cx="61.031" cy="68.911" r="0.875"></circle><circle cx="64.183" cy="68.911" r="0.875"></circle><circle cx="67.334" cy="68.911" r="0.875"></circle><circle cx="70.486" cy="68.911" r="0.875"></circle><circle cx="51.575" cy="72.062" r="0.875"></circle><circle cx="54.728" cy="72.062" r="0.875"></circle><circle cx="57.88" cy="72.062" r="0.875"></circle><circle cx="61.031" cy="72.062" r="0.875"></circle><circle cx="64.183" cy="72.062" r="0.875"></circle><circle cx="51.575" cy="75.214" r="0.875"></circle><circle cx="54.728" cy="75.214" r="0.875"></circle><circle cx="57.88" cy="75.214" r="0.875"></circle><circle cx="61.031" cy="75.214" r="0.875"></circle><circle cx="51.575" cy="78.365" r="0.875"></circle><circle cx="54.728" cy="78.365" r="0.875"></circle><circle cx="57.88" cy="78.365" r="0.875"></circle><circle cx="61.031" cy="78.365" r="0.875"></circle><circle cx="48.424" cy="81.517" r="0.875"></circle><circle cx="51.575" cy="81.517" r="0.875"></circle><circle cx="54.728" cy="81.517" r="0.875"></circle><circle cx="57.88" cy="81.517" r="0.875"></circle><circle cx="61.031" cy="81.517" r="0.875"></circle><circle cx="45.272" cy="84.67" r="0.875"></circle><circle cx="48.424" cy="84.67" r="0.875"></circle><circle cx="51.575" cy="84.67" r="0.875"></circle><circle cx="54.728" cy="84.67" r="0.875"></circle><circle cx="57.88" cy="84.67" r="0.875"></circle><circle cx="48.424" cy="87.821" r="0.875"></circle><circle cx="51.575" cy="87.821" r="0.875"></circle><circle cx="54.728" cy="87.821" r="0.875"></circle><circle cx="57.88" cy="87.821" r="0.875"></circle><circle cx="51.575" cy="90.973" r="0.875"></circle><circle cx="54.728" cy="90.973" r="0.875"></circle><circle cx="51.575" cy="94.125" r="0.875"></circle></g></svg>