<?xml version="1.0" encoding="utf-8"?>
<!-- Generator: Adobe Illustrator 16.0.0, SVG Export Plug-In . SVG Version: 6.00 Build 0)  -->
<!DOCTYPE svg PUBLIC "-//W3C//DTD SVG 1.1//EN" "http://www.w3.org/Graphics/SVG/1.1/DTD/svg11.dtd">
<svg version="1.1" id="Layer_1" xmlns="http://www.w3.org/2000/svg" xmlns:xlink="http://www.w3.org/1999/xlink" x="0px" y="0px"
	 width="45px" height="45px" viewBox="0 0 512 512" enable-background="new 0 0 512 512" xml:space="preserve" color="#E1B69B">
<path d="M438.521,126.566l-14.688-47.759c-2.54-8.208-10.022-13.723-18.608-13.723h-11.049l-12.355-41.197
	c-2.506-8.272-10.004-13.834-18.648-13.834H148.816c-8.642,0-16.14,5.563-18.665,13.882l-12.339,41.149h-11.049
	c-8.585,0-16.067,5.515-18.615,13.754L73.5,126.454c-1.863,5.893-0.783,12.383,2.95,17.462c3.661,4.918,9.498,7.853,15.625,7.853
	h7.983l7.222,76.579c-1.882,0.688-3.633,1.688-5.006,3.203c-2.371,2.612-3.523,6.104-3.185,9.62l14.067,144.222
	c0.543,5.535,4.706,9.727,9.953,10.823l8.3,88.012c0.912,10.102,9.248,17.72,19.397,17.72H361.18
	c10.151,0,18.487-7.618,19.389-17.649l8.309-88.086c5.24-1.103,9.393-5.29,9.936-10.82l14.069-144.222
	c0.338-3.515-0.814-7.007-3.185-9.62c-1.372-1.511-3.116-2.511-4.991-3.2l7.222-76.583h7.985c6.127,0,11.964-2.934,15.695-7.942
	C439.27,138.837,440.35,132.347,438.521,126.566z M116.769,98.107H395.22l6.352,20.639H110.416L116.769,98.107z M158.886,43.075
	h194.216l6.603,22.009H152.283L158.886,43.075z M163.134,468.925l-6.813-72.237h199.343l-6.813,72.237H163.134z M371.627,227.448
	H140.36l-7.136-75.679h245.541L371.627,227.448z"/>
</svg>
